
        <svg xmlns="http://www.w3.org/2000/svg" xmlns:xlink="http://www.w3.org/1999/xlink" version="1.1" width="3162.1621621621625" 
        height="1022.3444896294139" viewBox="0 0 3162.1621621621625 1022.3444896294139">
			<rect fill="#0245a3" width="3162.1621621621625" height="1022.3444896294139"/>
			<g transform="scale(8.108108108108109) translate(10, 10)">
				<defs id="SvgjsDefs1328"></defs><g id="SvgjsG1329" featureKey="symbolFeature-0" transform="matrix(1.331256495197515,0,0,1.331256495197515,-16.49959307257477,-13.859711706671803)" fill="#f2fcfc"><g xmlns="http://www.w3.org/2000/svg"><g><polygon points="54.644,56.782 35.043,56.782 29.789,76.381 49.394,76.381   "></polygon></g><g><polygon points="29.789,76.381 16.071,76.381 12.394,90.102 26.115,90.102   "></polygon></g><g><polygon points="72.04,43.063 58.319,43.063 54.644,56.782 68.363,56.782   "></polygon></g><g><polygon points="60.892,33.458 51.288,33.458 48.716,43.063 58.319,43.063   "></polygon></g><g><polygon points="78.988,17.134 69.384,17.134 66.81,26.739 76.416,26.739   "></polygon></g><g><polygon points="37.616,47.18 28.013,47.18 25.438,56.782 35.043,56.782   "></polygon></g><g><polygon points="87.511,10.411 80.79,10.411 78.988,17.134 85.71,17.134   "></polygon></g><g><polygon points="80.562,36.341 73.842,36.341 72.04,43.063 78.762,43.063   "></polygon></g><g><polygon points="53.089,26.735 46.37,26.735 44.565,33.458 51.288,33.458   "></polygon></g></g></g><g id="SvgjsG1330" featureKey="nameFeature-0" transform="matrix(2.0929611216248145,0,0,2.0929611216248145,115.22804970057716,-1.0225763298794952)" fill="#f2fcfc"><path d="M2.28 11.399999999999999 l6.56 -0.000078124 l0 15.28 c0 1.4933 0.06668 2.7533 0.2 3.78 s0.36 1.8534 0.68 2.48 s0.76 1.0734 1.32 1.34 s1.2667 0.4 2.12 0.4 c0.88 0 1.6 -0.13332 2.16 -0.4 s1 -0.70668 1.32 -1.32 s0.54668 -1.4333 0.68 -2.46 s0.2 -2.3 0.2 -3.82 l0 -15.28 l6.56 0 l0 16.48 c0 1.9733 -0.16668 3.7333 -0.5 5.28 s-0.91332 2.86 -1.74 3.94 s-1.94 1.9067 -3.34 2.48 s-3.18 0.86 -5.34 0.86 c-2.1333 0 -3.9 -0.28668 -5.3 -0.86 s-2.5133 -1.4 -3.34 -2.48 s-1.4067 -2.3933 -1.74 -3.94 s-0.5 -3.3067 -0.5 -5.28 l0 -16.48 z M34.952000000000005 17.08 l-6.84 0 l0 -5.68 l20.6 0 l-0.92 2.8 l-0.92 2.88 l-5.36 0 l0.12 1.12 l0 21.8 l-6.68 0 l0 -22.92 z M55.54400000000001 16.4 l-2.84 0 l2.6 -4.96 l8.8 0 l8.96 28.56 l-6.88 0 l-1.6 -5.72 l-1.56 0.12 l-5.56 0 l-1.36 -0.12 l-1.64 5.72 l-6.44 0 z M63.02400000000001 28.84 l-2.64 -9.52 l-2.8 9.52 l5.44 0 z M82.416 27.240000000000002 c-0.85332 -0.34668 -1.6466 -0.73332 -2.38 -1.16 s-1.3666 -0.94 -1.9 -1.54 s-0.94664 -1.3067 -1.24 -2.12 s-0.44 -1.78 -0.44 -2.9 c0 -1.3867 0.24 -2.6067 0.72 -3.66 s1.1533 -1.94 2.02 -2.66 s1.9134 -1.2667 3.14 -1.64 s2.5867 -0.56 4.08 -0.56 c1.2267 0 2.48 0.12668 3.76 0.38 s2.8133 0.68664 4.6 1.3 l-2.72 4.88 c-1.7333 -0.82668 -3.56 -1.24 -5.48 -1.24 c-0.37332 0 -0.76 0.04 -1.16 0.12 s-0.76 0.22 -1.08 0.42 s-0.58668 0.47332 -0.8 0.82 s-0.32 0.8 -0.32 1.36 c0 0.45332 0.08668 0.82664 0.26 1.12 s0.39332 0.54664 0.66 0.75996 s0.57336 0.39332 0.92004 0.54 s0.69336 0.28668 1.04 0.42 l2.36 0.92 c1.0133 0.4 1.94 0.82 2.78 1.26 s1.5533 0.97332 2.14 1.6 s1.04 1.3934 1.36 2.3 s0.48 2.04 0.48 3.4 s-0.24668 2.6 -0.74 3.72 s-1.2133 2.0733 -2.16 2.86 s-2.1134 1.4 -3.5 1.84 s-2.9734 0.66 -4.76 0.66 c-0.82668 0 -1.5867 -0.02668 -2.28 -0.08 s-1.3666 -0.14664 -2.02 -0.27996 s-1.3066 -0.29332 -1.96 -0.48 s-1.3533 -0.42668 -2.1 -0.72 l1.36 -5.6 c1.0933 0.29332 2.1666 0.55332 3.22 0.78 s2.1266 0.34 3.22 0.34 c1.4667 0 2.5867 -0.19332 3.36 -0.58 s1.2266 -1.1267 1.36 -2.22 c0.05332 -0.56 -0.013359 -1.0267 -0.20004 -1.4 s-0.45336 -0.68664 -0.80004 -0.93996 s-0.73336 -0.46 -1.16 -0.62 l-1.28 -0.48 z M100.168 11.64 c1.28 -0.16 2.4533 -0.28668 3.52 -0.38 s2.2 -0.14 3.4 -0.14 c1.4667 0 2.9267 0.14 4.38 0.42 s2.7533 0.76668 3.9 1.46 s2.0734 1.6266 2.78 2.8 s1.06 2.6666 1.06 4.48 c0 1.04 -0.14 1.9733 -0.42 2.8 s-0.62668 1.5534 -1.04 2.18 s-0.87332 1.1734 -1.38 1.64 s-1 0.86 -1.48 1.18 l-0.2 0.12 l0.54 0.88 l1.32 2.2 l1.7 2.84 l1.7 2.82 l1.28 2.18 l0.5 0.84 l-7.32 0 l-7.56 -13.16 l0 13.2 l-6.68 0 l0 -28.36 z M106.848 26.560000000000002 l1.4 -0.64 c0.34668 -0.16 0.76 -0.36 1.24 -0.6 s0.94668 -0.55332 1.4 -0.94 s0.84 -0.84668 1.16 -1.38 s0.48 -1.1866 0.48 -1.96 c0 -0.82668 -0.12 -1.5134 -0.36 -2.06 s-0.57332 -0.98668 -1 -1.32 s-0.92668 -0.57332 -1.5 -0.72 s-1.1933 -0.22 -1.86 -0.22 l-0.46 0 l-0.5 0.04 l0 9.8 z"></path></g>
			</g>
		</svg>
	